<mxfile host="app.diagrams.net" modified="2023-03-30T18:37:56.376Z" agent="Mozilla/5.0 (Windows NT 10.0; Win64; x64) AppleWebKit/537.36 (KHTML, like Gecko) Chrome/111.0.0.0 Safari/537.36" version="21.1.2" etag="Knmj6P_hGFku8BdR4wkX" type="github">
  <diagram name="Strona-1" id="EnHJ66GTRshnEUWGkKu5">
    <mxGraphModel>
      <root>
        <mxCell id="0" />
        <mxCell id="1" parent="0" />
      </root>
    </mxGraphModel>
  </diagram>
</mxfile>
